<?xml version="1.0" encoding="utf-8" standalone="no"?>
<!DOCTYPE svg PUBLIC "-//W3C//DTD SVG 1.1//EN"
  "http://www.w3.org/Graphics/SVG/1.1/DTD/svg11.dtd">
<!-- Created with matplotlib (https://matplotlib.org/) -->
<svg height="478.8pt" version="1.1" viewBox="0 0 931.68 478.8" width="931.68pt" xmlns="http://www.w3.org/2000/svg" xmlns:xlink="http://www.w3.org/1999/xlink">
 <metadata>
  <rdf:RDF xmlns:cc="http://creativecommons.org/ns#" xmlns:dc="http://purl.org/dc/elements/1.1/" xmlns:rdf="http://www.w3.org/1999/02/22-rdf-syntax-ns#">
   <cc:Work>
    <dc:type rdf:resource="http://purl.org/dc/dcmitype/StillImage"/>
    <dc:date>2023-02-25T02:43:57.960015</dc:date>
    <dc:format>image/svg+xml</dc:format>
    <dc:creator>
     <cc:Agent>
      <dc:title>Matplotlib v3.3.1, https://matplotlib.org/</dc:title>
     </cc:Agent>
    </dc:creator>
   </cc:Work>
  </rdf:RDF>
 </metadata>
 <defs>
  <style type="text/css">*{stroke-linecap:butt;stroke-linejoin:round;}</style>
 </defs>
 <g id="figure_1">
  <g id="patch_1">
   <path d="M 0 478.8 
L 931.68 478.8 
L 931.68 0 
L 0 0 
z
" style="fill:#ffffff;"/>
  </g>
  <g id="axes_1">
   <g id="patch_2">
    <path d="M 116.46 426.132 
L 838.512 426.132 
L 838.512 57.456 
L 116.46 57.456 
z
" style="fill:#ffffff;"/>
   </g>
   <g id="matplotlib.axis_1">
    <g id="xtick_1">
     <g id="line2d_1">
      <defs>
       <path d="M 0 0 
L 0 3.5 
" id="m4ae8434fbd" style="stroke:#000000;stroke-width:0.8;"/>
      </defs>
      <g>
       <use style="stroke:#000000;stroke-width:0.8;" x="126.988082" xlink:href="#m4ae8434fbd" y="426.132"/>
      </g>
     </g>
     <g id="text_1">
      <!-- −0.046 -->
      <g transform="translate(108.484175 440.730437)scale(0.1 -0.1)">
       <defs>
        <path d="M 10.59375 35.5 
L 73.1875 35.5 
L 73.1875 27.203125 
L 10.59375 27.203125 
z
" id="DejaVuSans-8722"/>
        <path d="M 31.78125 66.40625 
Q 24.171875 66.40625 20.328125 58.90625 
Q 16.5 51.421875 16.5 36.375 
Q 16.5 21.390625 20.328125 13.890625 
Q 24.171875 6.390625 31.78125 6.390625 
Q 39.453125 6.390625 43.28125 13.890625 
Q 47.125 21.390625 47.125 36.375 
Q 47.125 51.421875 43.28125 58.90625 
Q 39.453125 66.40625 31.78125 66.40625 
z
M 31.78125 74.21875 
Q 44.046875 74.21875 50.515625 64.515625 
Q 56.984375 54.828125 56.984375 36.375 
Q 56.984375 17.96875 50.515625 8.265625 
Q 44.046875 -1.421875 31.78125 -1.421875 
Q 19.53125 -1.421875 13.0625 8.265625 
Q 6.59375 17.96875 6.59375 36.375 
Q 6.59375 54.828125 13.0625 64.515625 
Q 19.53125 74.21875 31.78125 74.21875 
z
" id="DejaVuSans-48"/>
        <path d="M 10.6875 12.40625 
L 21 12.40625 
L 21 0 
L 10.6875 0 
z
" id="DejaVuSans-46"/>
        <path d="M 37.796875 64.3125 
L 12.890625 25.390625 
L 37.796875 25.390625 
z
M 35.203125 72.90625 
L 47.609375 72.90625 
L 47.609375 25.390625 
L 58.015625 25.390625 
L 58.015625 17.1875 
L 47.609375 17.1875 
L 47.609375 0 
L 37.796875 0 
L 37.796875 17.1875 
L 4.890625 17.1875 
L 4.890625 26.703125 
z
" id="DejaVuSans-52"/>
        <path d="M 33.015625 40.375 
Q 26.375 40.375 22.484375 35.828125 
Q 18.609375 31.296875 18.609375 23.390625 
Q 18.609375 15.53125 22.484375 10.953125 
Q 26.375 6.390625 33.015625 6.390625 
Q 39.65625 6.390625 43.53125 10.953125 
Q 47.40625 15.53125 47.40625 23.390625 
Q 47.40625 31.296875 43.53125 35.828125 
Q 39.65625 40.375 33.015625 40.375 
z
M 52.59375 71.296875 
L 52.59375 62.3125 
Q 48.875 64.0625 45.09375 64.984375 
Q 41.3125 65.921875 37.59375 65.921875 
Q 27.828125 65.921875 22.671875 59.328125 
Q 17.53125 52.734375 16.796875 39.40625 
Q 19.671875 43.65625 24.015625 45.921875 
Q 28.375 48.1875 33.59375 48.1875 
Q 44.578125 48.1875 50.953125 41.515625 
Q 57.328125 34.859375 57.328125 23.390625 
Q 57.328125 12.15625 50.6875 5.359375 
Q 44.046875 -1.421875 33.015625 -1.421875 
Q 20.359375 -1.421875 13.671875 8.265625 
Q 6.984375 17.96875 6.984375 36.375 
Q 6.984375 53.65625 15.1875 63.9375 
Q 23.390625 74.21875 37.203125 74.21875 
Q 40.921875 74.21875 44.703125 73.484375 
Q 48.484375 72.75 52.59375 71.296875 
z
" id="DejaVuSans-54"/>
       </defs>
       <use xlink:href="#DejaVuSans-8722"/>
       <use x="83.789062" xlink:href="#DejaVuSans-48"/>
       <use x="147.412109" xlink:href="#DejaVuSans-46"/>
       <use x="179.199219" xlink:href="#DejaVuSans-48"/>
       <use x="242.822266" xlink:href="#DejaVuSans-52"/>
       <use x="306.445312" xlink:href="#DejaVuSans-54"/>
      </g>
     </g>
    </g>
    <g id="xtick_2">
     <g id="line2d_2">
      <g>
       <use style="stroke:#000000;stroke-width:0.8;" x="250.269556" xlink:href="#m4ae8434fbd" y="426.132"/>
      </g>
     </g>
     <g id="text_2">
      <!-- −0.044 -->
      <g transform="translate(231.76565 440.730437)scale(0.1 -0.1)">
       <use xlink:href="#DejaVuSans-8722"/>
       <use x="83.789062" xlink:href="#DejaVuSans-48"/>
       <use x="147.412109" xlink:href="#DejaVuSans-46"/>
       <use x="179.199219" xlink:href="#DejaVuSans-48"/>
       <use x="242.822266" xlink:href="#DejaVuSans-52"/>
       <use x="306.445312" xlink:href="#DejaVuSans-52"/>
      </g>
     </g>
    </g>
    <g id="xtick_3">
     <g id="line2d_3">
      <g>
       <use style="stroke:#000000;stroke-width:0.8;" x="373.551031" xlink:href="#m4ae8434fbd" y="426.132"/>
      </g>
     </g>
     <g id="text_3">
      <!-- −0.042 -->
      <g transform="translate(355.047125 440.730437)scale(0.1 -0.1)">
       <defs>
        <path d="M 19.1875 8.296875 
L 53.609375 8.296875 
L 53.609375 0 
L 7.328125 0 
L 7.328125 8.296875 
Q 12.9375 14.109375 22.625 23.890625 
Q 32.328125 33.6875 34.8125 36.53125 
Q 39.546875 41.84375 41.421875 45.53125 
Q 43.3125 49.21875 43.3125 52.78125 
Q 43.3125 58.59375 39.234375 62.25 
Q 35.15625 65.921875 28.609375 65.921875 
Q 23.96875 65.921875 18.8125 64.3125 
Q 13.671875 62.703125 7.8125 59.421875 
L 7.8125 69.390625 
Q 13.765625 71.78125 18.9375 73 
Q 24.125 74.21875 28.421875 74.21875 
Q 39.75 74.21875 46.484375 68.546875 
Q 53.21875 62.890625 53.21875 53.421875 
Q 53.21875 48.921875 51.53125 44.890625 
Q 49.859375 40.875 45.40625 35.40625 
Q 44.1875 33.984375 37.640625 27.21875 
Q 31.109375 20.453125 19.1875 8.296875 
z
" id="DejaVuSans-50"/>
       </defs>
       <use xlink:href="#DejaVuSans-8722"/>
       <use x="83.789062" xlink:href="#DejaVuSans-48"/>
       <use x="147.412109" xlink:href="#DejaVuSans-46"/>
       <use x="179.199219" xlink:href="#DejaVuSans-48"/>
       <use x="242.822266" xlink:href="#DejaVuSans-52"/>
       <use x="306.445312" xlink:href="#DejaVuSans-50"/>
      </g>
     </g>
    </g>
    <g id="xtick_4">
     <g id="line2d_4">
      <g>
       <use style="stroke:#000000;stroke-width:0.8;" x="496.832506" xlink:href="#m4ae8434fbd" y="426.132"/>
      </g>
     </g>
     <g id="text_4">
      <!-- −0.040 -->
      <g transform="translate(478.3286 440.730437)scale(0.1 -0.1)">
       <use xlink:href="#DejaVuSans-8722"/>
       <use x="83.789062" xlink:href="#DejaVuSans-48"/>
       <use x="147.412109" xlink:href="#DejaVuSans-46"/>
       <use x="179.199219" xlink:href="#DejaVuSans-48"/>
       <use x="242.822266" xlink:href="#DejaVuSans-52"/>
       <use x="306.445312" xlink:href="#DejaVuSans-48"/>
      </g>
     </g>
    </g>
    <g id="xtick_5">
     <g id="line2d_5">
      <g>
       <use style="stroke:#000000;stroke-width:0.8;" x="620.113981" xlink:href="#m4ae8434fbd" y="426.132"/>
      </g>
     </g>
     <g id="text_5">
      <!-- −0.038 -->
      <g transform="translate(601.610074 440.730437)scale(0.1 -0.1)">
       <defs>
        <path d="M 40.578125 39.3125 
Q 47.65625 37.796875 51.625 33 
Q 55.609375 28.21875 55.609375 21.1875 
Q 55.609375 10.40625 48.1875 4.484375 
Q 40.765625 -1.421875 27.09375 -1.421875 
Q 22.515625 -1.421875 17.65625 -0.515625 
Q 12.796875 0.390625 7.625 2.203125 
L 7.625 11.71875 
Q 11.71875 9.328125 16.59375 8.109375 
Q 21.484375 6.890625 26.8125 6.890625 
Q 36.078125 6.890625 40.9375 10.546875 
Q 45.796875 14.203125 45.796875 21.1875 
Q 45.796875 27.640625 41.28125 31.265625 
Q 36.765625 34.90625 28.71875 34.90625 
L 20.21875 34.90625 
L 20.21875 43.015625 
L 29.109375 43.015625 
Q 36.375 43.015625 40.234375 45.921875 
Q 44.09375 48.828125 44.09375 54.296875 
Q 44.09375 59.90625 40.109375 62.90625 
Q 36.140625 65.921875 28.71875 65.921875 
Q 24.65625 65.921875 20.015625 65.03125 
Q 15.375 64.15625 9.8125 62.3125 
L 9.8125 71.09375 
Q 15.4375 72.65625 20.34375 73.4375 
Q 25.25 74.21875 29.59375 74.21875 
Q 40.828125 74.21875 47.359375 69.109375 
Q 53.90625 64.015625 53.90625 55.328125 
Q 53.90625 49.265625 50.4375 45.09375 
Q 46.96875 40.921875 40.578125 39.3125 
z
" id="DejaVuSans-51"/>
        <path d="M 31.78125 34.625 
Q 24.75 34.625 20.71875 30.859375 
Q 16.703125 27.09375 16.703125 20.515625 
Q 16.703125 13.921875 20.71875 10.15625 
Q 24.75 6.390625 31.78125 6.390625 
Q 38.8125 6.390625 42.859375 10.171875 
Q 46.921875 13.96875 46.921875 20.515625 
Q 46.921875 27.09375 42.890625 30.859375 
Q 38.875 34.625 31.78125 34.625 
z
M 21.921875 38.8125 
Q 15.578125 40.375 12.03125 44.71875 
Q 8.5 49.078125 8.5 55.328125 
Q 8.5 64.0625 14.71875 69.140625 
Q 20.953125 74.21875 31.78125 74.21875 
Q 42.671875 74.21875 48.875 69.140625 
Q 55.078125 64.0625 55.078125 55.328125 
Q 55.078125 49.078125 51.53125 44.71875 
Q 48 40.375 41.703125 38.8125 
Q 48.828125 37.15625 52.796875 32.3125 
Q 56.78125 27.484375 56.78125 20.515625 
Q 56.78125 9.90625 50.3125 4.234375 
Q 43.84375 -1.421875 31.78125 -1.421875 
Q 19.734375 -1.421875 13.25 4.234375 
Q 6.78125 9.90625 6.78125 20.515625 
Q 6.78125 27.484375 10.78125 32.3125 
Q 14.796875 37.15625 21.921875 38.8125 
z
M 18.3125 54.390625 
Q 18.3125 48.734375 21.84375 45.5625 
Q 25.390625 42.390625 31.78125 42.390625 
Q 38.140625 42.390625 41.71875 45.5625 
Q 45.3125 48.734375 45.3125 54.390625 
Q 45.3125 60.0625 41.71875 63.234375 
Q 38.140625 66.40625 31.78125 66.40625 
Q 25.390625 66.40625 21.84375 63.234375 
Q 18.3125 60.0625 18.3125 54.390625 
z
" id="DejaVuSans-56"/>
       </defs>
       <use xlink:href="#DejaVuSans-8722"/>
       <use x="83.789062" xlink:href="#DejaVuSans-48"/>
       <use x="147.412109" xlink:href="#DejaVuSans-46"/>
       <use x="179.199219" xlink:href="#DejaVuSans-48"/>
       <use x="242.822266" xlink:href="#DejaVuSans-51"/>
       <use x="306.445312" xlink:href="#DejaVuSans-56"/>
      </g>
     </g>
    </g>
    <g id="xtick_6">
     <g id="line2d_6">
      <g>
       <use style="stroke:#000000;stroke-width:0.8;" x="743.395455" xlink:href="#m4ae8434fbd" y="426.132"/>
      </g>
     </g>
     <g id="text_6">
      <!-- −0.036 -->
      <g transform="translate(724.891549 440.730437)scale(0.1 -0.1)">
       <use xlink:href="#DejaVuSans-8722"/>
       <use x="83.789062" xlink:href="#DejaVuSans-48"/>
       <use x="147.412109" xlink:href="#DejaVuSans-46"/>
       <use x="179.199219" xlink:href="#DejaVuSans-48"/>
       <use x="242.822266" xlink:href="#DejaVuSans-51"/>
       <use x="306.445312" xlink:href="#DejaVuSans-54"/>
      </g>
     </g>
    </g>
   </g>
   <g id="matplotlib.axis_2">
    <g id="ytick_1">
     <g id="line2d_7">
      <defs>
       <path d="M 0 0 
L -3.5 0 
" id="mbaaeee8850" style="stroke:#000000;stroke-width:0.8;"/>
      </defs>
      <g>
       <use style="stroke:#000000;stroke-width:0.8;" x="116.46" xlink:href="#mbaaeee8850" y="413.82873"/>
      </g>
     </g>
     <g id="text_7">
      <!-- 43.766 -->
      <g transform="translate(74.469375 417.627949)scale(0.1 -0.1)">
       <defs>
        <path d="M 8.203125 72.90625 
L 55.078125 72.90625 
L 55.078125 68.703125 
L 28.609375 0 
L 18.3125 0 
L 43.21875 64.59375 
L 8.203125 64.59375 
z
" id="DejaVuSans-55"/>
       </defs>
       <use xlink:href="#DejaVuSans-52"/>
       <use x="63.623047" xlink:href="#DejaVuSans-51"/>
       <use x="127.246094" xlink:href="#DejaVuSans-46"/>
       <use x="159.033203" xlink:href="#DejaVuSans-55"/>
       <use x="222.65625" xlink:href="#DejaVuSans-54"/>
       <use x="286.279297" xlink:href="#DejaVuSans-54"/>
      </g>
     </g>
    </g>
    <g id="ytick_2">
     <g id="line2d_8">
      <g>
       <use style="stroke:#000000;stroke-width:0.8;" x="116.46" xlink:href="#mbaaeee8850" y="371.494402"/>
      </g>
     </g>
     <g id="text_8">
      <!-- 43.767 -->
      <g transform="translate(74.469375 375.29362)scale(0.1 -0.1)">
       <use xlink:href="#DejaVuSans-52"/>
       <use x="63.623047" xlink:href="#DejaVuSans-51"/>
       <use x="127.246094" xlink:href="#DejaVuSans-46"/>
       <use x="159.033203" xlink:href="#DejaVuSans-55"/>
       <use x="222.65625" xlink:href="#DejaVuSans-54"/>
       <use x="286.279297" xlink:href="#DejaVuSans-55"/>
      </g>
     </g>
    </g>
    <g id="ytick_3">
     <g id="line2d_9">
      <g>
       <use style="stroke:#000000;stroke-width:0.8;" x="116.46" xlink:href="#mbaaeee8850" y="329.160073"/>
      </g>
     </g>
     <g id="text_9">
      <!-- 43.768 -->
      <g transform="translate(74.469375 332.959292)scale(0.1 -0.1)">
       <use xlink:href="#DejaVuSans-52"/>
       <use x="63.623047" xlink:href="#DejaVuSans-51"/>
       <use x="127.246094" xlink:href="#DejaVuSans-46"/>
       <use x="159.033203" xlink:href="#DejaVuSans-55"/>
       <use x="222.65625" xlink:href="#DejaVuSans-54"/>
       <use x="286.279297" xlink:href="#DejaVuSans-56"/>
      </g>
     </g>
    </g>
    <g id="ytick_4">
     <g id="line2d_10">
      <g>
       <use style="stroke:#000000;stroke-width:0.8;" x="116.46" xlink:href="#mbaaeee8850" y="286.825745"/>
      </g>
     </g>
     <g id="text_10">
      <!-- 43.769 -->
      <g transform="translate(74.469375 290.624964)scale(0.1 -0.1)">
       <defs>
        <path d="M 10.984375 1.515625 
L 10.984375 10.5 
Q 14.703125 8.734375 18.5 7.8125 
Q 22.3125 6.890625 25.984375 6.890625 
Q 35.75 6.890625 40.890625 13.453125 
Q 46.046875 20.015625 46.78125 33.40625 
Q 43.953125 29.203125 39.59375 26.953125 
Q 35.25 24.703125 29.984375 24.703125 
Q 19.046875 24.703125 12.671875 31.3125 
Q 6.296875 37.9375 6.296875 49.421875 
Q 6.296875 60.640625 12.9375 67.421875 
Q 19.578125 74.21875 30.609375 74.21875 
Q 43.265625 74.21875 49.921875 64.515625 
Q 56.59375 54.828125 56.59375 36.375 
Q 56.59375 19.140625 48.40625 8.859375 
Q 40.234375 -1.421875 26.421875 -1.421875 
Q 22.703125 -1.421875 18.890625 -0.6875 
Q 15.09375 0.046875 10.984375 1.515625 
z
M 30.609375 32.421875 
Q 37.25 32.421875 41.125 36.953125 
Q 45.015625 41.5 45.015625 49.421875 
Q 45.015625 57.28125 41.125 61.84375 
Q 37.25 66.40625 30.609375 66.40625 
Q 23.96875 66.40625 20.09375 61.84375 
Q 16.21875 57.28125 16.21875 49.421875 
Q 16.21875 41.5 20.09375 36.953125 
Q 23.96875 32.421875 30.609375 32.421875 
z
" id="DejaVuSans-57"/>
       </defs>
       <use xlink:href="#DejaVuSans-52"/>
       <use x="63.623047" xlink:href="#DejaVuSans-51"/>
       <use x="127.246094" xlink:href="#DejaVuSans-46"/>
       <use x="159.033203" xlink:href="#DejaVuSans-55"/>
       <use x="222.65625" xlink:href="#DejaVuSans-54"/>
       <use x="286.279297" xlink:href="#DejaVuSans-57"/>
      </g>
     </g>
    </g>
    <g id="ytick_5">
     <g id="line2d_11">
      <g>
       <use style="stroke:#000000;stroke-width:0.8;" x="116.46" xlink:href="#mbaaeee8850" y="244.491417"/>
      </g>
     </g>
     <g id="text_11">
      <!-- 43.770 -->
      <g transform="translate(74.469375 248.290636)scale(0.1 -0.1)">
       <use xlink:href="#DejaVuSans-52"/>
       <use x="63.623047" xlink:href="#DejaVuSans-51"/>
       <use x="127.246094" xlink:href="#DejaVuSans-46"/>
       <use x="159.033203" xlink:href="#DejaVuSans-55"/>
       <use x="222.65625" xlink:href="#DejaVuSans-55"/>
       <use x="286.279297" xlink:href="#DejaVuSans-48"/>
      </g>
     </g>
    </g>
    <g id="ytick_6">
     <g id="line2d_12">
      <g>
       <use style="stroke:#000000;stroke-width:0.8;" x="116.46" xlink:href="#mbaaeee8850" y="202.157089"/>
      </g>
     </g>
     <g id="text_12">
      <!-- 43.771 -->
      <g transform="translate(74.469375 205.956308)scale(0.1 -0.1)">
       <defs>
        <path d="M 12.40625 8.296875 
L 28.515625 8.296875 
L 28.515625 63.921875 
L 10.984375 60.40625 
L 10.984375 69.390625 
L 28.421875 72.90625 
L 38.28125 72.90625 
L 38.28125 8.296875 
L 54.390625 8.296875 
L 54.390625 0 
L 12.40625 0 
z
" id="DejaVuSans-49"/>
       </defs>
       <use xlink:href="#DejaVuSans-52"/>
       <use x="63.623047" xlink:href="#DejaVuSans-51"/>
       <use x="127.246094" xlink:href="#DejaVuSans-46"/>
       <use x="159.033203" xlink:href="#DejaVuSans-55"/>
       <use x="222.65625" xlink:href="#DejaVuSans-55"/>
       <use x="286.279297" xlink:href="#DejaVuSans-49"/>
      </g>
     </g>
    </g>
    <g id="ytick_7">
     <g id="line2d_13">
      <g>
       <use style="stroke:#000000;stroke-width:0.8;" x="116.46" xlink:href="#mbaaeee8850" y="159.822761"/>
      </g>
     </g>
     <g id="text_13">
      <!-- 43.772 -->
      <g transform="translate(74.469375 163.621979)scale(0.1 -0.1)">
       <use xlink:href="#DejaVuSans-52"/>
       <use x="63.623047" xlink:href="#DejaVuSans-51"/>
       <use x="127.246094" xlink:href="#DejaVuSans-46"/>
       <use x="159.033203" xlink:href="#DejaVuSans-55"/>
       <use x="222.65625" xlink:href="#DejaVuSans-55"/>
       <use x="286.279297" xlink:href="#DejaVuSans-50"/>
      </g>
     </g>
    </g>
    <g id="ytick_8">
     <g id="line2d_14">
      <g>
       <use style="stroke:#000000;stroke-width:0.8;" x="116.46" xlink:href="#mbaaeee8850" y="117.488432"/>
      </g>
     </g>
     <g id="text_14">
      <!-- 43.773 -->
      <g transform="translate(74.469375 121.287651)scale(0.1 -0.1)">
       <use xlink:href="#DejaVuSans-52"/>
       <use x="63.623047" xlink:href="#DejaVuSans-51"/>
       <use x="127.246094" xlink:href="#DejaVuSans-46"/>
       <use x="159.033203" xlink:href="#DejaVuSans-55"/>
       <use x="222.65625" xlink:href="#DejaVuSans-55"/>
       <use x="286.279297" xlink:href="#DejaVuSans-51"/>
      </g>
     </g>
    </g>
    <g id="ytick_9">
     <g id="line2d_15">
      <g>
       <use style="stroke:#000000;stroke-width:0.8;" x="116.46" xlink:href="#mbaaeee8850" y="75.154104"/>
      </g>
     </g>
     <g id="text_15">
      <!-- 43.774 -->
      <g transform="translate(74.469375 78.953323)scale(0.1 -0.1)">
       <use xlink:href="#DejaVuSans-52"/>
       <use x="63.623047" xlink:href="#DejaVuSans-51"/>
       <use x="127.246094" xlink:href="#DejaVuSans-46"/>
       <use x="159.033203" xlink:href="#DejaVuSans-55"/>
       <use x="222.65625" xlink:href="#DejaVuSans-55"/>
       <use x="286.279297" xlink:href="#DejaVuSans-52"/>
      </g>
     </g>
    </g>
   </g>
   <g id="line2d_16">
    <path clip-path="url(#pc50e6c4d71)" d="M 753.658888 337.403728 
L 752.922206 336.807479 
L 752.922206 336.807479 
L 749.778176 335.270874 
L 745.749281 333.236851 
L 736.057914 328.177135 
L 719.868462 320.083467 
L 659.876948 290.704107 
L 627.787549 275.037455 
L 623.563728 272.852603 
L 603.014816 262.844491 
L 590.704613 256.493002 
L 559.985031 241.137518 
L 552.884357 237.671671 
L 513.534787 218.238354 
L 364.112309 143.647269 
L 352.822344 138.344145 
L 345.008335 135.468304 
L 339.135543 133.466224 
L 336.388636 132.704913 
L 329.197531 131.027847 
L 325.594028 130.315394 
L 320.160508 129.381189 
L 310.287281 128.216417 
L 303.088133 127.733757 
L 286.019706 127.116651 
L 269.700638 126.945212 
L 247.44728 127.18275 
L 224.823442 127.333273 
L 219.668038 127.06066 
L 215.435734 126.561951 
L 210.94934 125.511738 
L 209.803924 125.189606 
L 207.687494 124.398019 
L 204.076069 122.432325 
L 202.324969 121.12502 
L 200.445534 119.037387 
L 199.114785 116.253462 
L 199.015695 115.639411 
L 198.930296 114.05951 
L 199.321059 112.075542 
L 201.008059 109.455241 
L 203.534698 107.120893 
L 206.294636 105.291875 
L 209.913275 103.788173 
L 212.68078 102.877378 
L 215.485086 102.259258 
L 218.205945 101.798812 
L 222.081041 101.350943 
L 229.377335 101.238397 
L 240.937837 101.103218 
L 263.035435 100.684194 
L 269.638751 100.547694 
L 273.318787 100.03341 
L 276.984841 99.229683 
L 281.055684 97.287374 
L 284.215199 95.033293 
L 285.728502 92.889603 
L 285.728502 92.889603 
L 286.071995 90.952084 
L 286.071995 90.952084 
L 285.609859 88.916658 
L 283.167894 86.332259 
L 281.795232 85.195156 
L 279.637639 83.872537 
L 277.548929 82.782647 
L 275.200579 81.764505 
L 271.36948 80.339451 
L 265.527822 79.010119 
L 260.425734 78.406038 
L 256.910041 78.210503 
L 248.635463 78.337011 
L 246.633322 78.513718 
L 239.536367 79.60544 
L 230.810735 81.351201 
L 215.320437 85.039248 
L 199.711892 89.325557 
L 193.690701 91.284704 
L 186.190869 93.893884 
L 181.533242 95.632997 
L 175.956876 98.043604 
L 172.389488 99.719445 
L 168.510847 101.970946 
L 162.605406 106.418148 
L 161.147905 107.759328 
L 159.613025 109.484796 
L 157.876355 112.240325 
L 157.404587 116.994497 
L 157.878494 118.936177 
L 158.869287 121.268143 
L 161.183939 123.700132 
L 163.348656 125.565594 
L 172.014001 132.256992 
L 178.976513 137.527991 
L 193.367824 148.863058 
L 200.034572 153.835283 
L 201.821624 154.960335 
L 205.60992 156.623967 
L 209.587647 157.803084 
L 213.752799 158.686981 
L 216.010112 158.985711 
L 222.131078 159.56731 
L 225.768172 159.55257 
L 230.736196 159.041801 
L 235.201239 158.384917 
L 249.009998 155.193769 
L 286.571633 146.381863 
L 291.228132 145.392107 
L 295.830331 144.53118 
L 300.430256 143.795223 
L 304.712527 143.31734 
L 311.577498 142.893549 
L 318.538457 142.792724 
L 322.218586 142.820922 
L 326.529517 143.051502 
L 332.746231 143.725755 
L 339.474409 145.211017 
L 347.660606 147.610999 
L 356.896348 151.061379 
L 364.231342 154.308801 
L 382.955044 163.733643 
L 413.457976 179.511615 
L 421.814473 184.14642 
L 429.800813 188.877046 
L 439.469235 194.776921 
L 456.213009 206.479011 
L 478.190184 223.040317 
L 501.983233 242.100118 
L 527.73078 262.100647 
L 551.810226 281.643868 
L 557.61318 287.774406 
L 559.270885 290.597184 
L 560.183842 292.704227 
L 561.056518 295.470249 
L 561.945326 300.157762 
L 561.830821 302.790859 
L 560.605729 306.804345 
L 558.855621 310.15321 
L 555.58393 313.593559 
L 542.917907 324.882839 
L 539.916952 327.635699 
L 536.636881 331.7397 
L 534.878524 336.675089 
L 534.962956 339.699421 
L 535.163349 341.74722 
L 535.378122 342.642844 
L 536.422563 344.629488 
L 537.09376 345.500467 
L 538.865644 347.574814 
L 541.201936 349.849641 
L 543.091581 351.226352 
L 546.240113 353.278953 
L 551.801184 355.548641 
L 560.504614 357.941814 
L 650.408762 380.747474 
L 685.825171 389.442337 
L 728.147558 399.463909 
L 746.200245 403.48641 
L 752.150647 404.615251 
L 756.777829 405.284311 
L 760.333203 405.603859 
L 765.630362 405.507724 
L 768.938883 405.18647 
L 771.069943 404.741884 
L 773.587601 404.017021 
L 777.525302 402.53414 
L 780.594378 401.136254 
L 783.801353 399.071802 
L 793.037811 391.513303 
L 795.950638 388.266185 
L 796.309488 387.119604 
L 796.384098 385.114526 
L 796.384098 385.114526 
L 795.356881 383.172409 
L 793.321906 381.186696 
L 790.842981 379.712879 
L 788.430617 378.658065 
L 783.188226 377.239314 
L 777.877208 376.609531 
L 703.024672 369.504834 
L 673.170923 363.845532 
L 596.811524 349.053089 
L 592.915843 348.213219 
L 585.169454 346.15111 
L 578.055756 343.319205 
L 573.4811 340.857525 
L 569.382506 337.684482 
L 567.275079 335.270792 
L 565.723029 332.667441 
L 564.665449 330.233303 
L 564.457606 325.74014 
L 565.175974 322.569251 
L 567.603211 318.873635 
L 570.632744 315.798497 
L 573.287168 313.394297 
L 579.401585 308.242059 
L 595.109419 294.134036 
L 599.967364 291.326053 
L 606.682261 289.22887 
L 609.465126 288.789344 
L 618.729494 288.420806 
L 623.567136 288.86531 
L 629.451063 290.162195 
L 634.371529 292.083666 
L 639.745001 296.152979 
L 642.084583 298.952648 
L 668.741103 333.77901 
L 674.176213 337.39248 
L 677.07168 339.208008 
L 681.853495 341.412155 
L 688.02341 343.236247 
L 693.011233 344.004214 
L 706.272829 345.666105 
L 735.571286 348.499865 
L 739.225374 348.612436 
L 742.101677 348.514727 
L 745.46847 348.10133 
L 748.33725 347.58358 
L 751.516063 346.24407 
L 752.783469 345.349665 
L 754.620562 343.595882 
L 755.533028 342.17734 
L 755.484181 340.154471 
L 754.819486 338.885961 
L 753.658888 337.403728 
L 753.658888 337.403728 
" style="fill:none;stroke:#1f77b4;stroke-linecap:square;stroke-width:1.5;"/>
   </g>
   <g id="line2d_17">
    <path clip-path="url(#pc50e6c4d71)" d="M 760.011998 333.96464 
L 758.044763 333.068588 
L 724.207787 315.918701 
L 618.41993 264.069717 
L 601.85954 255.775283 
L 581.039051 245.478026 
L 564.31981 237.022638 
L 557.208923 233.479674 
L 517.962847 214.095547 
L 457.783689 183.936256 
L 410.762121 160.633914 
L 384.737772 147.599334 
L 368.32375 139.642311 
L 356.312465 134.450639 
L 350.596291 132.142213 
L 346.016762 130.592903 
L 342.027472 129.45991 
L 333.852543 127.454004 
L 327.299191 126.247367 
L 321.549872 125.36441 
L 311.000577 124.356212 
L 303.48143 123.866708 
L 286.1143 123.160328 
L 261.84092 123.212366 
L 224.756206 123.459809 
L 220.137699 123.253135 
L 216.556425 122.642359 
L 213.282807 121.598103 
L 211.113949 120.585095 
L 209.6729 119.639019 
L 208.748181 118.895613 
L 207.427006 117.434233 
L 206.947495 116.602907 
L 206.532599 115.067252 
L 206.680322 113.507971 
L 207.412277 111.763796 
L 207.932814 110.959857 
L 208.880138 110.006466 
L 211.822693 108.092113 
L 213.916894 107.12866 
L 216.148465 106.353326 
L 218.30293 105.80387 
L 221.261863 105.437362 
L 224.185343 105.187142 
L 227.360277 105.127285 
L 240.829203 104.908816 
L 272.0105 104.450403 
L 275.125239 104.109536 
L 277.103171 103.748307 
L 280.712017 102.914327 
L 285.284165 101.441433 
L 287.200117 100.61214 
L 289.641646 99.210753 
L 292.852702 96.217527 
L 294.177477 92.672384 
L 294.354326 91.728354 
L 294.072231 89.357614 
L 293.64106 88.238526 
L 292.869181 86.976532 
L 290.842917 84.913272 
L 289.963237 84.077769 
L 288.724016 83.168634 
L 287.139894 82.151935 
L 283.865793 80.202692 
L 278.218104 77.938085 
L 276.142641 77.194065 
L 269.498664 75.548302 
L 267.262314 75.084115 
L 260.893592 74.438234 
L 257.377501 74.246073 
L 252.480329 74.214 
L 248.502593 74.349515 
L 245.535564 74.614815 
L 241.392728 75.148718 
L 233.285455 76.619262 
L 221.128788 79.275697 
L 207.577137 82.602419 
L 197.13856 85.595111 
L 183.169208 90.076796 
L 178.418583 91.69843 
L 172.170456 94.175148 
L 163.728815 98.442843 
L 160.54315 100.613654 
L 157.26197 103.0713 
L 153.125169 106.91791 
L 151.209934 109.547368 
L 150.074406 111.875146 
L 149.280545 115.158412 
L 149.404692 117.509324 
L 150.175535 120.19007 
L 151.159068 122.245546 
L 151.86571 123.334518 
L 153.026208 124.585883 
L 155.058821 126.44985 
L 160.540673 130.638464 
L 195.10843 157.222207 
L 197.714575 158.715181 
L 200.202214 159.853566 
L 202.240613 160.658929 
L 204.616363 161.400832 
L 210.22032 162.752445 
L 214.711306 163.614918 
L 221.668029 162.595496 
L 225.812544 162.799616 
L 231.817069 162.657258 
L 239.359711 161.678421 
L 246.562206 160.265952 
L 271.981692 154.727792 
L 278.005123 153.554543 
L 288.889177 151.167932 
L 297.754994 149.487926 
L 305.924614 148.411101 
L 311.985066 148.131553 
L 315.407833 148.024964 
L 322.106582 148.228954 
L 325.836661 148.531395 
L 330.216628 149.184012 
L 333.234414 149.822944 
L 340.804113 152.006089 
L 344.054419 153.141645 
L 351.81359 156.476526 
L 358.972277 159.911784 
L 377.085626 169.096568 
L 381.698493 171.503843 
L 387.304529 174.264263 
L 391.367491 176.416206 
L 397.445243 179.481182 
L 407.372006 184.927771 
L 415.272965 189.321942 
L 423.41303 194.056483 
L 432.499775 199.808647 
L 448.786967 211.210128 
L 470.347489 227.68926 
L 494.23964 246.760216 
L 519.96916 266.850236 
L 543.740171 285.691177 
L 550.626058 290.290935 
L 552.098477 292.063041 
L 552.95938 294.180723 
L 553.57342 296.20952 
L 553.887159 298.540231 
L 553.810774 300.286612 
L 553.362701 302.559828 
L 552.575862 305.153687 
L 551.074561 307.568037 
L 549.092147 310.115175 
L 546.990826 312.489152 
L 544.861258 314.626488 
L 534.121156 324.972054 
L 531.862218 327.349222 
L 530.30816 329.35386 
L 528.999303 331.243183 
L 527.450848 333.750916 
L 526.72041 336.172443 
L 526.515624 338.29547 
L 526.53034 339.810464 
L 527.017036 342.154408 
L 527.873554 344.503814 
L 530.364497 348.19837 
L 532.524859 350.470034 
L 536.017497 353.206157 
L 540.323552 355.938939 
L 542.248981 356.696619 
L 544.639379 357.848798 
L 548.5343 359.122267 
L 558.427888 361.797073 
L 628.240869 379.71991 
L 648.279456 384.718475 
L 683.874555 393.23989 
L 744.518834 407.409769 
L 750.793539 408.438906 
L 760.004687 409.374 
L 766.10817 409.329785 
L 769.733913 409.048529 
L 773.031974 408.397271 
L 780.588195 406.099945 
L 784.326633 404.387409 
L 788.544784 401.800459 
L 798.477243 394.541123 
L 803.780062 389.421998 
L 805.043008 387.821113 
L 805.558143 386.582864 
L 805.691455 385.09164 
L 805.211383 383.169069 
L 803.905431 381.01075 
L 801.523275 378.670073 
L 799.068204 377.073435 
L 795.908215 375.60579 
L 791.65173 374.306116 
L 784.769551 373.039745 
L 778.764603 372.566931 
L 704.259932 365.665555 
L 674.665266 360.155129 
L 652.921139 355.833029 
L 639.602861 353.34691 
L 619.021262 349.328521 
L 607.180429 347.154809 
L 594.544959 344.648931 
L 587.369277 342.337126 
L 581.468563 339.750951 
L 577.843522 337.403168 
L 575.122057 334.969697 
L 573.915436 333.229688 
L 572.819101 331.09726 
L 571.985222 328.926942 
L 571.798625 326.126773 
L 572.382147 323.990026 
L 573.672113 321.304733 
L 576.254411 318.726115 
L 578.937097 316.336633 
L 583.338638 312.665009 
L 584.764491 311.063161 
L 597.745571 299.551666 
L 600.521615 296.881786 
L 603.604627 294.987365 
L 608.020829 293.226453 
L 610.840806 292.897761 
L 618.187734 292.511743 
L 622.199677 293.015143 
L 626.625734 294.155902 
L 630.654161 296.056137 
L 633.466307 298.636039 
L 635.617823 301.409152 
L 656.917138 329.586265 
L 661.484544 335.243565 
L 663.568216 337.268673 
L 665.84427 339.003063 
L 669.281544 341.074523 
L 674.957829 343.765909 
L 679.405389 345.281515 
L 683.362378 346.320953 
L 691.76025 347.851868 
L 705.410955 349.513995 
L 725.782716 351.804704 
L 743.125543 353.246247 
L 747.343554 353.001911 
L 752.384676 352.299995 
L 756.948965 350.726102 
L 759.117918 349.583559 
L 761.476841 347.981605 
L 763.22657 346.593436 
L 764.497275 344.976518 
L 765.617303 342.454821 
L 765.71347 340.13384 
L 764.917341 337.822973 
L 764.063843 336.601127 
L 762.149348 335.001655 
L 760.088798 333.992087 
L 760.088798 333.992087 
" style="fill:none;stroke:#ff7f0e;stroke-linecap:square;stroke-width:1.5;"/>
   </g>
   <g id="line2d_18">
    <path clip-path="url(#pc50e6c4d71)" d="M 756.835443 335.684184 
L 752.4145 333.395785 
L 748.033375 331.173265 
L 738.297262 326.153976 
L 722.038124 318.001084 
L 644.37231 280.032327 
L 630.074024 272.952486 
L 616.266607 266.168394 
L 592.862913 254.461025 
L 562.152421 239.080078 
L 515.748817 216.16695 
L 382.568351 149.662391 
L 366.21803 141.64479 
L 354.567404 136.397392 
L 349.065374 134.240028 
L 340.581507 131.463067 
L 332.84191 129.541627 
L 326.446609 128.28138 
L 320.85519 127.372799 
L 310.643929 126.286314 
L 303.284781 125.800233 
L 286.067003 125.138489 
L 269.643217 125.052716 
L 247.425798 125.254216 
L 224.789824 125.396541 
L 219.902868 125.156897 
L 215.996079 124.602155 
L 213.63032 124.037109 
L 211.010783 123.165492 
L 209.400721 122.491557 
L 207.397422 121.361518 
L 206.412125 120.663969 
L 205.164095 119.633714 
L 204.245557 118.625438 
L 203.696515 117.820147 
L 202.87298 115.967402 
L 202.774147 115.353332 
L 202.741064 114.204734 
L 203.000691 112.791757 
L 204.210168 110.609518 
L 206.207418 108.56368 
L 208.418824 107.058854 
L 211.427641 105.667611 
L 213.859949 104.787948 
L 217.698381 103.883928 
L 220.880565 103.466318 
L 224.148664 103.243036 
L 229.389427 103.158992 
L 252.823404 102.80908 
L 270.182916 102.543689 
L 274.222013 102.071473 
L 278.848429 101.072005 
L 283.169924 99.364404 
L 284.396213 98.758336 
L 286.713898 97.27507 
L 288.195298 95.946249 
L 289.017464 94.940482 
L 289.720352 93.368037 
L 290.205851 91.38145 
L 289.990356 89.794757 
L 289.645626 88.666412 
L 289.23952 87.946595 
L 286.81365 85.421971 
L 284.467563 83.673545 
L 281.751716 82.037615 
L 279.287033 80.894595 
L 274.642412 79.096454 
L 270.705386 77.98689 
L 266.395068 77.047117 
L 260.659663 76.422136 
L 257.143771 76.228288 
L 248.569028 76.343263 
L 246.084443 76.564266 
L 242.09537 77.100098 
L 234.112228 78.556525 
L 226.755681 80.149568 
L 214.19883 83.109335 
L 203.57657 86.008869 
L 198.425226 87.460334 
L 192.386033 89.393383 
L 179.975912 93.665714 
L 174.063666 96.109376 
L 170.208997 97.947659 
L 166.119831 100.206895 
L 159.933688 104.744724 
L 158.044288 106.457105 
L 156.369097 108.201353 
L 154.667089 110.63359 
L 153.97538 112.057735 
L 153.414465 115.351905 
L 153.40464 117.25191 
L 154.027015 119.563123 
L 155.367499 122.30133 
L 156.179352 123.170358 
L 158.12138 125.074991 
L 163.174764 129.056968 
L 197.571501 155.528745 
L 199.7681 156.837758 
L 203.925266 158.641448 
L 205.999932 159.286057 
L 211.246705 160.576509 
L 215.360709 161.300315 
L 221.899554 161.081403 
L 225.790358 161.176093 
L 228.894522 161.057016 
L 231.276633 160.849529 
L 236.063162 160.195681 
L 241.525039 159.145378 
L 264.920952 153.88598 
L 284.801467 149.406282 
L 292.275845 147.849095 
L 296.792663 147.009553 
L 305.318571 145.864221 
L 311.781282 145.512551 
L 315.414897 145.406861 
L 322.162584 145.524938 
L 326.183089 145.791448 
L 331.481429 146.454883 
L 334.494849 147.103238 
L 338.133966 148.038446 
L 342.570299 149.29737 
L 345.857513 150.376322 
L 354.354969 153.768953 
L 361.601809 157.110292 
L 380.020335 166.415105 
L 410.414991 182.219693 
L 418.543719 186.734181 
L 426.606921 191.466765 
L 435.984505 197.292784 
L 452.499988 208.844569 
L 474.268836 225.364788 
L 498.111436 244.430167 
L 523.84997 264.475442 
L 547.775199 283.667523 
L 554.119619 289.03267 
L 555.684681 291.330113 
L 556.571611 293.442475 
L 557.314969 295.839885 
L 557.71415 298.162155 
L 557.87805 300.222187 
L 557.596761 302.675343 
L 556.590795 305.979016 
L 554.965091 308.860623 
L 552.338039 311.854367 
L 547.829345 316.216828 
L 537.019054 326.303877 
L 535.045069 328.549113 
L 533.472521 330.54678 
L 532.701132 331.816272 
L 531.448041 334.468357 
L 530.799467 336.423766 
L 530.746648 339.754943 
L 531.090193 341.950814 
L 531.625838 343.573329 
L 533.729128 346.849418 
L 535.695252 349.022424 
L 538.609716 351.527899 
L 542.692646 354.224842 
L 546.260192 355.882942 
L 550.167742 357.335454 
L 559.466251 359.869444 
L 649.344109 382.732974 
L 684.849863 391.341113 
L 742.215762 404.750495 
L 745.35954 405.448089 
L 751.472093 406.527078 
L 756.420575 407.159196 
L 760.168945 407.48893 
L 765.869266 407.418755 
L 769.336398 407.1175 
L 772.050959 406.569578 
L 774.9089 405.734594 
L 779.056748 404.317043 
L 782.460505 402.761831 
L 786.173068 400.436131 
L 795.757527 393.027213 
L 799.86535 388.844091 
L 800.676248 387.470358 
L 800.946814 386.501929 
L 801.037776 385.103083 
L 800.797741 384.141797 
L 799.631156 382.09158 
L 797.918688 380.412473 
L 796.195055 379.130066 
L 793.375598 377.659334 
L 790.041174 376.48209 
L 783.978889 375.139529 
L 778.320905 374.588231 
L 703.642302 367.585194 
L 673.918094 362.000331 
L 618.24855 351.217844 
L 606.428668 348.992905 
L 593.730401 346.431075 
L 586.269365 344.244118 
L 579.76216 341.535078 
L 575.662311 339.130346 
L 572.252281 336.32709 
L 570.595257 334.25024 
L 569.271065 331.882351 
L 568.325336 329.580123 
L 568.128115 325.933456 
L 568.77906 323.279638 
L 570.637662 320.089184 
L 573.443578 317.262306 
L 576.112132 314.865465 
L 580.564668 311.175749 
L 582.083038 309.65261 
L 597.815517 295.507911 
L 601.785995 293.156709 
L 607.351545 291.227661 
L 610.152966 290.843552 
L 618.458614 290.466275 
L 622.883406 290.940227 
L 628.038399 292.159048 
L 632.512845 294.069902 
L 636.605654 297.394509 
L 638.851203 300.1809 
L 664.729336 334.028316 
L 666.154659 335.523841 
L 668.460514 337.182726 
L 671.728878 339.233502 
L 674.791974 340.92293 
L 676.818187 341.858658 
L 680.629442 343.346835 
L 686.910843 345.011288 
L 688.54884 345.328917 
L 692.385742 345.928041 
L 705.841892 347.59005 
L 726.209756 349.72054 
L 739.081629 350.813307 
L 742.61361 350.880487 
L 746.406012 350.551621 
L 750.360963 349.941787 
L 754.232514 348.485086 
L 755.950693 347.466612 
L 757.639139 346.206366 
L 758.923566 345.094659 
L 759.993792 343.610135 
L 760.575165 342.31608 
L 760.604736 340.179546 
L 760.200761 338.988722 
L 759.441665 337.743544 
L 758.157333 336.517278 
L 756.873843 335.697907 
L 756.873843 335.697907 
" style="fill:none;stroke:#2ca02c;stroke-linecap:square;stroke-width:1.5;"/>
   </g>
   <g id="patch_3">
    <path d="M 116.46 426.132 
L 116.46 57.456 
" style="fill:none;stroke:#000000;stroke-linecap:square;stroke-linejoin:miter;stroke-width:0.8;"/>
   </g>
   <g id="patch_4">
    <path d="M 838.512 426.132 
L 838.512 57.456 
" style="fill:none;stroke:#000000;stroke-linecap:square;stroke-linejoin:miter;stroke-width:0.8;"/>
   </g>
   <g id="patch_5">
    <path d="M 116.46 426.132 
L 838.512 426.132 
" style="fill:none;stroke:#000000;stroke-linecap:square;stroke-linejoin:miter;stroke-width:0.8;"/>
   </g>
   <g id="patch_6">
    <path d="M 116.46 57.456 
L 838.512 57.456 
" style="fill:none;stroke:#000000;stroke-linecap:square;stroke-linejoin:miter;stroke-width:0.8;"/>
   </g>
  </g>
 </g>
 <defs>
  <clipPath id="pc50e6c4d71">
   <rect height="368.676" width="722.052" x="116.46" y="57.456"/>
  </clipPath>
 </defs>
</svg>
